#N canvas 534 45 557 478 16;
#X declare -lib mrpeach;
#X obj 264 39 import mrpeach;
#X obj 85 74 unpackOSC;
#X obj 85 39 udpreceive 57120;
#X obj 240 349 line~;
#X obj 173 396 *~;
#X obj 69 309 print;
#X obj 173 436 dac~;
#X obj 143 349 osc~ 440;
#X obj 85 109 routeOSC /1/osc;
#X obj 85 144 unpack 0 0 0;
#X floatatom 143 188 5 0 0 0 - - -;
#X floatatom 202 188 5 0 0 0 - - -;
#X obj 202 230 delay;
#X msg 202 267 0 5;
#X msg 85 267 0.5 5;
#X connect 1 0 8 0;
#X connect 2 0 1 0;
#X connect 3 0 4 1;
#X connect 4 0 6 0;
#X connect 4 0 6 1;
#X connect 7 0 4 0;
#X connect 8 0 9 0;
#X connect 9 0 14 0;
#X connect 9 1 10 0;
#X connect 9 2 11 0;
#X connect 10 0 7 0;
#X connect 11 0 12 0;
#X connect 12 0 13 0;
#X connect 13 0 3 0;
#X connect 14 0 3 0;
